<svg xmlns="http://www.w3.org/2000/svg" xmlns:xlink="http://www.w3.org/1999/xlink" viewBox="0 0 512 512" class="animation-image"><style>.st1{fill:#e84f4f}.st2{fill:#e7f1f5}.st9{fill:#fff}</style><circle cx="256" cy="256" r="256" fill="#b0dff8" id="bg" /><g id="boat" class="boat"><path class="st1" d="M213.5 203.9c-3.8 5.3-8.2 10.6-11.5 17h129.7c-1.3-2.6-12.3-16.2-14.2-17.8 1.5-4.9 1.6-4.7.3-9.6l-101-1.2c-8.2 0-9 7.7-3.3 11.6z" /><path class="st2" d="M111.9 228.6c-2.7 6.7-15.3 33.7-20.6 35.2H57.7c4.6 13.5 20.9 65.3 23.9 68.4h328.5c3.3-3.3 14.4-27 16.7-32.6h6.5l21-35.8c-10.3 0-57.8 2.3-63.5-2.6-9.2-8-29.5-28.3-40.2-32 1.5-2.9 2.4-4.3 1.6-8.5-1.7-.7-3.5-1.3-5.9-1.3H106.7c-3.8 0-6.8.8-6.1 6.4 1.6 4.1 6.7 2.8 11.3 2.8z" /><path class="st1" d="M69.5 299.6c.8 2.3 1.6 4.7 2.3 6.9h351.9c1.4-3 2.5-5.5 3.1-6.9h6.5H69.5z" /><path d="M143.7 267.4c4.5 0 8.2 3.6 8.2 8.1s-3.6 8.1-8.2 8.1-8.2-3.6-8.2-8.1 3.7-8.1 8.2-8.1zm198.7 0c4.5 0 8.2 3.6 8.2 8.1s-3.6 8.1-8.2 8.1c-4.5 0-8.2-3.6-8.2-8.1s3.7-8.1 8.2-8.1zm-22.4 0c4.5 0 8.2 3.6 8.2 8.1s-3.6 8.1-8.2 8.1-8.2-3.6-8.2-8.1c.1-4.5 3.7-8.1 8.2-8.1zm-22.3 0c4.5 0 8.2 3.6 8.2 8.1s-3.6 8.1-8.2 8.1-8.2-3.6-8.2-8.1 3.7-8.1 8.2-8.1zm-87 0c4.5 0 8.2 3.6 8.2 8.1s-3.6 8.1-8.2 8.1-8.2-3.6-8.2-8.1c.1-4.5 3.7-8.1 8.2-8.1zm-22.3 0c4.5 0 8.2 3.6 8.2 8.1s-3.6 8.1-8.2 8.1c-4.5 0-8.2-3.6-8.2-8.1s3.7-8.1 8.2-8.1zm-22.3 0c4.5 0 8.2 3.6 8.2 8.1s-3.6 8.1-8.2 8.1c-4.5 0-8.2-3.6-8.2-8.1s3.7-8.1 8.2-8.1z" fill="#4fb5f5" /><path d="M111.9 228.6c-2.7 6.6-12.4 27.3-18.2 33.5h298.8c-.7-.3-1.2-.5-1.6-.9-9.2-8-29.3-28-40-32l-239-.6z" fill="#ddecf0" /><path d="M118.6 235.6h4.3c.9 0 1.7.7 1.7 1.5v6.6c0 .8-.8 1.5-1.7 1.5h-4.3c-.9 0-1.7-.7-1.7-1.5v-6.6c0-.8.8-1.5 1.7-1.5zm223 0h4.3c.9 0 1.7.7 1.7 1.5v6.6c0 .8-.8 1.5-1.7 1.5h-4.3c-.9 0-1.7-.7-1.7-1.5v-6.6c0-.8.7-1.5 1.7-1.5zm-13.3 0h4.3c.9 0 1.7.7 1.7 1.5v6.6c0 .8-.8 1.5-1.7 1.5h-4.3c-.9 0-1.7-.7-1.7-1.5v-6.6c0-.8.8-1.5 1.7-1.5zm-13.3 0h4.3c.9 0 1.7.7 1.7 1.5v6.6c0 .8-.8 1.5-1.7 1.5H315c-.9 0-1.7-.7-1.7-1.5v-6.6c0-.8.8-1.5 1.7-1.5zm-13.2 0h4.3c.9 0 1.7.7 1.7 1.5v6.6c0 .8-.8 1.5-1.7 1.5h-4.3c-.9 0-1.7-.7-1.7-1.5v-6.6c0-.8.8-1.5 1.7-1.5zm-13.3 0h4.2c.9 0 1.7.7 1.7 1.5v6.6c0 .8-.8 1.5-1.7 1.5h-4.2c-.9 0-1.7-.7-1.7-1.5v-6.6c0-.8.8-1.5 1.7-1.5zm-13.2 0h4.3c.9 0 1.7.7 1.7 1.5v6.6c0 .8-.8 1.5-1.7 1.5h-4.3c-.9 0-1.7-.7-1.7-1.5v-6.6c0-.8.7-1.5 1.7-1.5zm-13.3 0h4.2c.9 0 1.7.7 1.7 1.5v6.6c0 .8-.8 1.5-1.7 1.5H262c-.9 0-1.7-.7-1.7-1.5v-6.6c0-.8.8-1.5 1.7-1.5zm-13.2 0h4.3c.9 0 1.7.7 1.7 1.5v6.6c0 .8-.8 1.5-1.7 1.5h-4.3c-.9 0-1.7-.7-1.7-1.5v-6.6c0-.8.7-1.5 1.7-1.5zm-37.4 0h4.3c.9 0 1.7.7 1.7 1.5v6.6c0 .8-.8 1.5-1.7 1.5h-4.3c-.9 0-1.7-.7-1.7-1.5v-6.6c0-.8.8-1.5 1.7-1.5zm-13.2 0h4.3c.9 0 1.7.7 1.7 1.5v6.6c0 .8-.8 1.5-1.7 1.5h-4.3c-.9 0-1.7-.7-1.7-1.5v-6.6c0-.8.7-1.5 1.7-1.5zm-13.3 0h4.3c.9 0 1.7.7 1.7 1.5v6.6c0 .8-.8 1.5-1.7 1.5h-4.3c-.9 0-1.7-.7-1.7-1.5v-6.6c0-.8.8-1.5 1.7-1.5zm-13.2 0h4.3c.9 0 1.7.7 1.7 1.5v6.6c0 .8-.8 1.5-1.7 1.5h-4.3c-.9 0-1.7-.7-1.7-1.5v-6.6c0-.8.7-1.5 1.7-1.5zm-13.3 0h4.2c.9 0 1.7.7 1.7 1.5v6.6c0 .8-.8 1.5-1.7 1.5h-4.2c-.9 0-1.7-.7-1.7-1.5v-6.6c0-.8.8-1.5 1.7-1.5zm-13.3 0h4.3c.9 0 1.7.7 1.7 1.5v6.6c0 .8-.8 1.5-1.7 1.5h-4.3c-.9 0-1.7-.7-1.7-1.5v-6.6c0-.8.8-1.5 1.7-1.5zm-13.2 0h4.2c.9 0 1.7.7 1.7 1.5v6.6c0 .8-.8 1.5-1.7 1.5h-4.2c-.9 0-1.7-.7-1.7-1.5v-6.6c0-.8.8-1.5 1.7-1.5z" fill="#6ac9fc" /><path class="st1" d="M392.1 262.1c-.7-.3-.9-.5-1.3-.9-1-.8-1.9-1.8-3.1-2.8l-291.2.1c-1 1.3-2 2.5-3 3.6h298.6z" /><path class="st2" d="M213.5 203.9l-1.4 2h108.1c-1.2-1.4-2.1-2.4-2.6-2.8l.1-.3H212.2c.4.4.8.7 1.3 1.1zM231.8 148.9h23.8l4.9 43.8h-33.6l4.9-43.8z" /><path class="st1" d="M235 142.5h17.4v6.4H235z" /><path class="st2" d="M269.6 158.9H288l3.8 33.9h-26l3.8-33.9z" /><path class="st1" d="M272.1 153.9h13.4v5h-13.4z" /></g><g id="waves"><defs><circle id="XMLID_1_" cx="256" cy="256" r="256" /></defs><clipPath id="XMLID_3_"><use xlink:href="#XMLID_1_" overflow="visible" /></clipPath><g clip-path="url(#XMLID_3_)"><path class="waves" d="M589.7 333.3c-20 0-20-20-40-20s-20 20-40 20-20-20-40-20-20 20-40 20-20-20-40-20-20 20-40 20-20-20-40-20-20 20-40 20-20-20-40-20-20 20-40 20-20-20-40-20-20 20-40 20-20-20-40-20-20 20-40 20-20-20-40-20-20 20-40 20" fill="#14688b" /></g><path clip-path="url(#XMLID_3_)" fill="#14688b" d="M-50 333v198l639.7-1.7V333" /></g><g id="smoke-short" class="smoke-short"><circle class="st9 cloud-small smoke" cx="279.5" cy="145.5" r="4.4" /><circle class="st9 cloud-large smoke" cx="279.9" cy="130.1" r="7.8" /></g><g id="smoke-tall" class="smoke-tall smoke"><circle class="st9 cloud-small smoke" cx="243.5" cy="134.5" r="4.4" /><circle class="st9 cloud-large smoke" cx="243.9" cy="116.1" r="7.8" /></g></svg>

